<svg xmlns="http://www.w3.org/2000/svg" xmlns:xlink="http://www.w3.org/1999/xlink" width="50" zoomAndPan="magnify" viewBox="0 0 37.5 37.499999" height="50" preserveAspectRatio="xMidYMid meet" version="1.0"><defs><clipPath id="b1ead0f74c"><path d="M 11.289062 11.289062 L 26.289062 11.289062 L 26.289062 26.289062 L 11.289062 26.289062 Z M 11.289062 11.289062 " clip-rule="nonzero"/></clipPath></defs><g clip-path="url(#b1ead0f74c)"><path fill="#8a8a8a" d="M 20.929688 22.257812 L 24.601562 25.929688 C 24.964844 26.292969 25.558594 26.292969 25.921875 25.929688 C 26.285156 25.566406 26.285156 24.972656 25.921875 24.609375 L 22.25 20.941406 C 22.988281 19.9375 23.425781 18.695312 23.425781 17.351562 C 23.425781 14.003906 20.707031 11.289062 17.359375 11.289062 C 14.011719 11.289062 11.292969 14.003906 11.292969 17.351562 C 11.292969 20.699219 14.011719 23.417969 17.359375 23.417969 C 18.691406 23.417969 19.925781 22.988281 20.929688 22.257812 Z M 17.359375 13.152344 C 19.675781 13.152344 21.558594 15.035156 21.558594 17.351562 C 21.558594 19.671875 19.675781 21.554688 17.359375 21.554688 C 15.039062 21.554688 13.15625 19.671875 13.15625 17.351562 C 13.15625 15.035156 15.039062 13.152344 17.359375 13.152344 Z M 17.359375 13.152344 " fill-opacity="1" fill-rule="evenodd"/></g></svg>