<?xml version="1.0" encoding="utf-8"?>

<!DOCTYPE svg PUBLIC "-//W3C//DTD SVG 1.1//EN" "http://www.w3.org/Graphics/SVG/1.1/DTD/svg11.dtd">
<svg version="1.1" id="Layer_1" xmlns="http://www.w3.org/2000/svg" xmlns:xlink="http://www.w3.org/1999/xlink" x="0px" y="0px"
	 viewBox="0 0 1300.412 1714.162" style="enable-background:new 0 0 1300.412 1714.162;" xml:space="preserve">
<path d="M1013.919,815.454c99.57-53.705,149.689-137.381,149.689-249.763c0-171.051-94.638-291.118-312.783-318.356V57.081H652.921
	v180.862c-31.554-0.29-45.777-0.225-151.339-0.225V57.081H303.677v180.636H93.914v1238.727h209.763v180.636h197.905v-180.636
	c152.45,0,143.775,0.005,151.339-0.012v180.648h197.905v-187.932c235.127-22.674,355.672-159.403,355.672-364.406
	C1206.498,957.756,1147.683,863.471,1013.919,815.454z M793.589,625.398c0,128.383-115.308,106.802-313.677,106.802V518.597
	C701.151,518.597,793.589,506.238,793.589,625.398z M479.912,1187.157V958.416c219.941,0,353.202-21.349,353.202,113.528
	C833.114,1210.86,694.536,1187.157,479.912,1187.157z"/>
</svg>
